#!OML:ASF E:\Style4\Style4.ASF
:FULLY-SPECIFIED
:DEGREES
2997
root 0.390061 17.3131 -1.55471 4.3843 -7.84048 2.39049
lowerback 17.7453 1.65917 -2.3514
upperback 11.7378 1.77498 -0.361638
thorax 2.59543 0.747969 0.673724
lowerneck 7.82889 -3.61697 -7.26219
upperneck -0.269233 -5.34484 4.31097
head -1.1176 -2.73142 2.82223
rclavicle -2.127e-014 -7.95139e-016
rhumerus 13.9952 10.2842 -81.5397
rradius 130.257
rwrist 7.92539
rhand 32.3967 -10.2535
rfingers 7.12502
rthumb 55.8478 -27.7606
lclavicle -2.127e-014 -7.95139e-016
lhumerus 33.3433 -11.273 72.9575
lradius 130.317
lwrist -9.48659
lhand 21.512 39.81
lfingers 7.12502
lthumb 45.9409 62.9291
rfemur -30.283 -2.54753 15.9134
rtibia 45.2597
rfoot -18.0546 -13.8727
rtoes -11.7602
lfemur -27.6511 7.4018 -23.1608
ltibia 44.3589
lfoot -22.846 13.1159
ltoes -10.058
2998
root 0.363459 17.3199 -1.55489 4.50635 -7.3189 2.27402
lowerback 17.7286 1.5058 -2.39981
upperback 11.7272 1.57377 -0.46367
thorax 2.60007 0.649821 0.624162
lowerneck 7.65105 -3.54994 -7.64906
upperneck -0.126353 -5.27288 4.6291
head -1.02838 -2.70163 2.99082
rclavicle -1.88845e-014 9.74045e-015
rhumerus 13.6177 10.5986 -81.5956
rradius 131.069
rwrist 7.80929
rhand 32.6362 -10.1065
rfingers 7.12502
rthumb 56.0601 -27.4496
lclavicle -1.88845e-014 9.74045e-015
lhumerus 33.8823 -11.5734 72.5579
lradius 129.998
lwrist -10.3185
lhand 21.316 40.0496
lfingers 7.12502
lthumb 45.759 63.2438
rfemur -30.2558 -2.7256 16.1147
rtibia 45.2094
rfoot -18.2454 -13.9759
rtoes -10.8376
lfemur -27.7852 7.26202 -22.958
ltibia 44.2922
lfoot -22.6634 12.8486
ltoes -10.0567
2999
root 0.338634 17.3266 -1.55517 4.63507 -6.83776 2.28924
lowerback 17.6702 1.48915 -2.38616
upperback 11.7306 1.5606 -0.673754
thorax 2.64053 0.653568 0.398271
lowerneck 7.55236 -3.66779 -7.75242
upperneck -0.030449 -5.42447 5.0225
head -0.957528 -2.78513 3.14135
rclavicle -2.15681e-014 5.36719e-015
rhumerus 13.3197 10.5367 -81.6217
rradius 131.861
rwrist 7.66953
rhand 32.6899 -9.95933
rfingers 7.12502
rthumb 56.1077 -27.2653
lclavicle -2.15681e-014 5.36719e-015
lhumerus 34.5115 -12.2567 72.1108
lradius 129.78
lwrist -10.9034
lhand 21.1807 40.4129
lfingers 7.12502
lthumb 45.6334 63.6585
rfemur -30.2972 -2.92091 16.175
rtibia 45.2117
rfoot -18.299 -14.1727
rtoes -10.5529
lfemur -27.9378 7.20269 -22.908
ltibia 44.2065
lfoot -22.456 12.5277
ltoes -10.1826
3000
root 0.31607 17.3311 -1.55256 4.74246 -6.49531 2.34183
lowerback 17.6072 1.50417 -2.38278
upperback 11.7219 1.58624 -0.895426
thorax 2.66951 0.676487 0.160094
lowerneck 7.66778 -3.7092 -7.84137
upperneck -0.136061 -5.48597 5.41075
head -0.996301 -2.82347 3.29872
rclavicle -5.31749e-015 8.39865e-015
rhumerus 13.1539 10.5167 -81.6131
rradius 132.617
rwrist 7.29585
rhand 32.7746 -9.80935
rfingers 7.12502
rthumb 56.1827 -27.0565
lclavicle -5.31749e-015 8.39865e-015
lhumerus 34.8638 -12.8015 71.7497
lradius 129.715
lwrist -11.2776
lhand 21.5515 40.6265
lfingers 7.12502
lthumb 45.9776 63.7304
rfemur -30.3759 -3.00947 16.1754
rtibia 45.2758
rfoot -18.2937 -14.3366
rtoes -10.4787
lfemur -28.0464 7.2384 -22.9142
ltibia 44.1082
lfoot -22.1989 12.3034
ltoes -10.6195
3001
root 0.298732 17.3308 -1.54963 4.82796 -6.24891 2.42369
lowerback 17.5809 1.52003 -2.38042
upperback 11.7227 1.61083 -1.09213
thorax 2.68969 0.697555 -0.0516933
lowerneck 7.78706 -3.65795 -7.9319
upperneck -0.318015 -5.42532 5.69637
head -1.07235 -2.79852 3.42186
rclavicle -5.26779e-015 7.00716e-015
rhumerus 13.2721 10.6643 -81.4759
rradius 133.221
rwrist 6.68836
rhand 32.7881 -9.6784
rfingers 7.12502
rthumb 56.1946 -26.9162
lclavicle -5.26779e-015 7.00716e-015
lhumerus 34.8733 -13.3096 71.4605
lradius 129.872
lwrist -11.611
lhand 21.9291 40.8743
lfingers 7.12502
lthumb 46.3277 63.8311
rfemur -30.4967 -3.04393 16.1292
rtibia 45.4108
rfoot -18.3245 -14.4578
rtoes -10.6676
lfemur -28.1211 7.24876 -22.97
ltibia 44.0167
lfoot -21.985 12.2497
ltoes -11.1869
